<?xml version="1.0" encoding="UTF-8" standalone="no"?>
<!DOCTYPE svg PUBLIC "-//W3C//DTD SVG 1.1//EN" "http://www.w3.org/Graphics/SVG/1.1/DTD/svg11.dtd">
<svg width="100%" height="100%" viewBox="0 0 1745 1658" version="1.1" xmlns="http://www.w3.org/2000/svg" xmlns:xlink="http://www.w3.org/1999/xlink" xml:space="preserve" xmlns:serif="http://www.serif.com/" style="fill-rule:evenodd;clip-rule:evenodd;stroke-linejoin:round;stroke-miterlimit:2;">
    <g>
        <g transform="matrix(1,0,0,1,2.425,0)">
            <path d="M431.37,604.57C431.37,597.94 435.12,591.87 441.05,588.9L544.71,537.07C549.638,534.602 555.452,534.602 560.38,537.07L664.04,588.9C669.97,591.87 673.72,597.93 673.72,604.57L673.72,727.69C673.72,737.36 665.88,745.21 656.2,745.21L648.39,745.21C645.14,745.21 641.96,744.31 639.19,742.6L439.69,619.48C434.524,616.293 431.369,610.64 431.37,604.57Z"/>
        </g>
        <g transform="matrix(1,0,0,1,2.425,0)">
            <path d="M1308.65,605.78C1308.65,599.15 1304.9,593.08 1298.97,590.11L1195.31,538.28C1190.38,535.812 1184.57,535.812 1179.64,538.28L1075.98,590.11C1070.06,593.075 1066.3,599.156 1066.3,605.78L1066.3,728.9C1066.3,738.57 1074.14,746.42 1083.82,746.42L1091.63,746.42C1094.88,746.42 1098.06,745.52 1100.83,743.81L1300.33,620.69C1305.5,617.5 1308.65,611.86 1308.65,605.78Z"/>
        </g>
        <g transform="matrix(1,0,0,1,4.84,0)">
            <path d="M649.48,1371.05L649.48,1272.04C649.48,1264.88 653.84,1258.44 660.49,1255.78L763.35,1214.64C768,1212.78 773.21,1213 777.69,1215.24L859.76,1256.27C864.688,1258.74 870.502,1258.74 875.43,1256.27L957.5,1215.24C961.98,1213 967.19,1212.79 971.84,1214.64L1074.7,1255.78C1081.35,1258.44 1085.71,1264.88 1085.71,1272.04L1085.71,1371.05C1085.71,1377.41 1082.26,1383.27 1076.7,1386.36L876.11,1497.8C870.827,1500.74 864.383,1500.74 859.1,1497.8L658.51,1386.36C652.957,1383.28 649.501,1377.4 649.5,1371.05L649.48,1371.05Z"/>
        </g>
    </g>
    <path d="M1124.15,0C1130.73,0 1137.22,1.53 1143.11,4.47L1292.94,79.39C1303,84.415 1314.64,85.243 1325.31,81.69L1553.73,5.55C1564.39,1.998 1576.04,2.826 1586.09,7.85L1721.44,75.53C1735.78,82.697 1744.87,97.41 1744.87,113.44L1744.87,331.42C1744.87,342.655 1740.4,353.442 1732.46,361.39L1670.05,423.8C1662.1,431.746 1657.64,442.534 1657.64,453.77L1657.64,949.67C1657.64,956.25 1656.11,962.74 1653.17,968.63L1574.88,1125.22C1571.94,1131.11 1567.66,1136.23 1562.4,1140.17L1238.38,1383.18C1227.71,1391.18 1221.43,1403.75 1221.43,1417.09L1221.43,1460.46C1221.43,1474.63 1214.35,1487.87 1202.56,1495.73L970.381,1650.51C963.42,1655.15 955.238,1657.63 946.871,1657.63L797.99,1657.63C789.623,1657.63 781.441,1655.15 774.48,1650.51L542.3,1495.73C530.51,1487.87 523.43,1474.63 523.43,1460.46L523.43,1417.09C523.43,1403.75 517.15,1391.18 506.48,1383.18L182.47,1140.17C177.204,1136.23 172.93,1131.11 169.99,1125.22L91.7,968.63C88.76,962.74 87.23,956.25 87.23,949.67L87.23,453.77C87.232,442.534 82.765,431.746 74.82,423.8L12.41,361.39C4.469,353.442 0.003,342.655 0,331.42L-0,113.44C-0.002,97.41 9.092,82.697 23.43,75.53L158.78,7.85C168.831,2.826 180.479,1.998 191.14,5.55L419.56,81.69C430.221,85.243 441.869,84.415 451.92,79.39L601.75,4.47C607.64,1.53 614.13,0 620.71,0L1124.15,0ZM433.795,604.57C433.794,610.64 436.949,616.293 442.115,619.48L641.615,742.6C644.385,744.31 647.565,745.21 650.815,745.21L658.625,745.21C668.305,745.21 676.145,737.36 676.145,727.69L676.145,604.57C676.145,597.93 672.395,591.87 666.465,588.9L562.805,537.07C557.877,534.602 552.063,534.602 547.135,537.07L443.475,588.9C437.545,591.87 433.795,597.94 433.795,604.57ZM654.32,1371.05L654.34,1371.05C654.341,1377.4 657.797,1383.28 663.35,1386.36L863.94,1497.8C869.223,1500.74 875.667,1500.74 880.95,1497.8L1081.54,1386.36C1087.1,1383.27 1090.55,1377.41 1090.55,1371.05L1090.55,1272.04C1090.55,1264.88 1086.19,1258.44 1079.54,1255.78L976.68,1214.64C972.03,1212.79 966.82,1213 962.34,1215.24L880.27,1256.27C875.342,1258.74 869.528,1258.74 864.6,1256.27L782.53,1215.24C778.05,1213 772.84,1212.78 768.19,1214.64L665.33,1255.78C658.68,1258.44 654.32,1264.88 654.32,1272.04L654.32,1371.05ZM1311.08,605.78C1311.08,599.15 1307.33,593.08 1301.39,590.11L1197.74,538.28C1192.81,535.812 1186.99,535.812 1182.07,538.28L1078.4,590.11C1072.48,593.075 1068.72,599.156 1068.72,605.78L1068.72,728.9C1068.72,738.57 1076.57,746.42 1086.25,746.42L1094.06,746.42C1097.31,746.42 1100.49,745.52 1103.26,743.81L1302.76,620.69C1307.92,617.5 1311.08,611.86 1311.08,605.78Z" style="fill:rgb(158,255,0);"/>
</svg>
